<svg viewBox="0 0 600 720" xmlns="http://www.w3.org/2000/svg">
  <defs>
    <linearGradient id="hdr2" x1="0" y1="0" x2="1" y2="0">
      <stop offset="0%" stop-color="#f58a20"/>
      <stop offset="100%" stop-color="#b93929"/>
    </linearGradient>
  </defs>
  <rect width="600" height="720" fill="#ffffff"/>
  <rect width="600" height="130" fill="url(#hdr2)"/>
  <rect x="40" y="44" width="170" height="16" rx="8" fill="#ffffff" fill-opacity="0.9"/>
  <rect x="40" y="70" width="260" height="26" rx="8" fill="#ffffff" fill-opacity="0.95"/>
  <rect x="40" y="160" width="520" height="2" fill="#f1e3d6"/>
  <g font-family="Helvetica, Arial, sans-serif">
    <!-- transaction rows -->
    <g>
      <rect x="40" y="188" width="60" height="10" rx="5" fill="#c9c2b7"/>
      <rect x="130" y="184" width="220" height="14" rx="7" fill="#3a3733"/>
      <rect x="130" y="204" width="120" height="9" rx="4" fill="#a9a39a"/>
      <rect x="440" y="188" width="120" height="14" rx="7" fill="#1f9d63"/>
    </g>
    <rect x="40" y="238" width="520" height="1" fill="#f4ece1"/>
    <g>
      <rect x="40" y="258" width="60" height="10" rx="5" fill="#c9c2b7"/>
      <rect x="130" y="254" width="180" height="14" rx="7" fill="#3a3733"/>
      <rect x="130" y="274" width="140" height="9" rx="4" fill="#a9a39a"/>
      <rect x="470" y="258" width="90" height="14" rx="7" fill="#3a3733"/>
    </g>
    <rect x="40" y="308" width="520" height="1" fill="#f4ece1"/>
    <g>
      <rect x="40" y="328" width="60" height="10" rx="5" fill="#c9c2b7"/>
      <rect x="130" y="324" width="200" height="14" rx="7" fill="#3a3733"/>
      <rect x="130" y="344" width="110" height="9" rx="4" fill="#a9a39a"/>
      <rect x="470" y="328" width="90" height="14" rx="7" fill="#3a3733"/>
    </g>
    <rect x="40" y="378" width="520" height="1" fill="#f4ece1"/>
    <g>
      <rect x="40" y="398" width="60" height="10" rx="5" fill="#c9c2b7"/>
      <rect x="130" y="394" width="240" height="14" rx="7" fill="#3a3733"/>
      <rect x="130" y="414" width="130" height="9" rx="4" fill="#a9a39a"/>
      <rect x="440" y="398" width="120" height="14" rx="7" fill="#1f9d63"/>
    </g>
    <rect x="40" y="448" width="520" height="1" fill="#f4ece1"/>
    <g>
      <rect x="40" y="468" width="60" height="10" rx="5" fill="#c9c2b7"/>
      <rect x="130" y="464" width="190" height="14" rx="7" fill="#3a3733"/>
      <rect x="130" y="484" width="120" height="9" rx="4" fill="#a9a39a"/>
      <rect x="470" y="468" width="90" height="14" rx="7" fill="#3a3733"/>
    </g>
  </g>
  <rect x="40" y="560" width="520" height="120" rx="20" fill="#172c43"/>
  <rect x="72" y="592" width="220" height="14" rx="7" fill="#ffffff" fill-opacity="0.9"/>
  <rect x="72" y="618" width="300" height="10" rx="5" fill="#ffffff" fill-opacity="0.55"/>
  <rect x="72" y="642" width="150" height="24" rx="12" fill="#f47b20"/>
</svg>
